<svg xmlns="http://www.w3.org/2000/svg" width="368" height="649" viewBox="0 0 368 649" fill="none">
<g clip-path="url(#clip0_14_2)">
<path d="M366.6 162.1L387.1 0.5L386.9 163.3L427.4 5.6L407 167.2L467 15.7L426.5 173.6L505 30.6L444.8 182.1L540.7 50.2L462 193.1L573.6 74.3L477.8 206L603.4 102.2L491.8 220.9L629.5 133.7L503.7 237.5L651.3 168.1L513.6 255.3L668.7 205L521.1 274.4L681.3 243.8L526.2 294.2L689 283.8L528.8 314.3L691.6 324.5L528.8 334.7L689 365.1L526.2 354.9L681.3 405.1L521.1 374.6L668.7 444L513.6 393.6L651.3 480.8L503.7 411.4L629.5 515.2L491.8 427.8L603.5 546.6L477.9 442.6L573.7 574.5L462.1 455.8L540.8 598.5L444.9 466.6L505 618.2L426.5 475.5L467 633.2L407 481.7L427.4 643.4L386.9 485.5L387.1 648.5L366.7 486.8L346.3 648.5V485.5L305.8 643.4L326.4 481.7L266.4 633.2L306.9 475.5L228.4 618.2L288.6 466.7L192.7 598.6L271.4 455.9L159.5 574.7L255.4 442.8L129.8 546.8L241.5 428L103.8 515.4L229.6 411.6L81.9 480.9L219.6 393.7L64.5 444L212.1 374.6L51.9 405.1L207 354.9L44.3 365.1L204.5 334.6L41.7 324.4L204.5 314.2L44.3 283.8L207 294.1L51.9 243.7L212.1 274.3L64.5 205L219.6 255.4L81.9 168.1L229.5 237.5L103.8 133.7L241.5 220.9L129.8 102.3L255.4 206.1L159.5 74.3L271.2 193.1L192.5 50.3L288.4 182.2L228.3 30.6L306.8 173.5L266.3 15.7L326.3 167.2L305.7 5.6L346.2 163.3V0.5L366.6 162.1Z" stroke="black" stroke-width="2" stroke-miterlimit="10"/>
<path d="M95.7 470.6L141.4 495.5L95.7 520.6L70.7 566.2L45.7 520.6L0 495.5L45.7 470.6L70.7 424.8L95.7 470.6Z" fill="#013186"/>
<path d="M217.1 244.1L298.8 288.6L217.1 333.5L172.4 415L127.7 333.5L46 288.6L127.7 244.1L172.4 162.2L217.1 244.1Z" fill="#191A23"/>
</g>
<defs>
<clipPath id="clip0_14_2">
<rect width="367.1" height="649" fill="white"/>
</clipPath>
</defs>
</svg>